<svg width="20" height="20" viewBox="0 0 20 20" fill="none" xmlns="http://www.w3.org/2000/svg">
<g clip-path="url(#clip0_742_26899)">
<path d="M17.5003 2.5C17.7213 2.5 17.9333 2.5878 18.0896 2.74408C18.2459 2.90036 18.3337 3.11232 18.3337 3.33333V9.16667H16.667V4.16667H3.33366V15.8333H8.33366V17.5H2.50033C2.27931 17.5 2.06735 17.4122 1.91107 17.2559C1.75479 17.0996 1.66699 16.8877 1.66699 16.6667V3.33333C1.66699 3.11232 1.75479 2.90036 1.91107 2.74408C2.06735 2.5878 2.27931 2.5 2.50033 2.5H17.5003ZM17.5003 10.8333C17.7213 10.8333 17.9333 10.9211 18.0896 11.0774C18.2459 11.2337 18.3337 11.4457 18.3337 11.6667V16.6667C18.3337 16.8877 18.2459 17.0996 18.0896 17.2559C17.9333 17.4122 17.7213 17.5 17.5003 17.5H10.8337C10.6126 17.5 10.4007 17.4122 10.2444 17.2559C10.0881 17.0996 10.0003 16.8877 10.0003 16.6667V11.6667C10.0003 11.4457 10.0881 11.2337 10.2444 11.0774C10.4007 10.9211 10.6126 10.8333 10.8337 10.8333H17.5003ZM16.667 12.5H11.667V15.8333H16.667V12.5Z" fill="#6A7282"/>
</g>
<defs>
<clipPath id="clip0_742_26899">
<rect width="20" height="20" fill="white"/>
</clipPath>
</defs>
</svg>
