<svg width="20" height="20" viewBox="0 0 20 20" fill="none" xmlns="http://www.w3.org/2000/svg">
<g clip-path="url(#clip0_718_19131)">
<mask id="mask0_718_19131" style="mask-type:luminance" maskUnits="userSpaceOnUse" x="0" y="0" width="20" height="20">
<path d="M20 0H0V20H20V0Z" fill="white"/>
</mask>
<g mask="url(#mask0_718_19131)">
<path d="M13.6501 18.9577H2.7001C1.90844 18.9577 1.1751 18.5911 0.700106 17.9494C0.216773 17.2994 0.075113 16.4827 0.316779 15.7077L3.8251 4.43267C4.14177 3.38267 5.10845 2.66602 6.20845 2.66602H16.4584C17.4667 2.66602 18.3751 3.26609 18.7584 4.19942C18.9667 4.68276 19.0084 5.23277 18.8834 5.77443L16.0751 17.0493C15.8084 18.1743 14.8084 18.9577 13.6501 18.9577ZM6.21677 3.92436C5.6751 3.92436 5.18344 4.28274 5.0251 4.80774L1.51678 16.0827C1.40011 16.4744 1.46677 16.8827 1.71677 17.2161C1.9501 17.5327 2.31678 17.7161 2.70845 17.7161H13.6584C14.2335 17.7161 14.7334 17.3244 14.8667 16.7661L17.6751 5.48268C17.7417 5.20768 17.7251 4.93272 17.6167 4.69106C17.4168 4.21606 16.9751 3.91602 16.4667 3.91602H6.21677V3.92436Z" fill="#6A7282"/>
<path d="M17.3173 18.9591H13.334C12.9923 18.9591 12.709 18.6758 12.709 18.3341C12.709 17.9924 12.9923 17.7091 13.334 17.7091H17.3173C17.659 17.7091 17.9757 17.5675 18.209 17.3175C18.4423 17.0675 18.559 16.7342 18.534 16.3925L17.709 5.0425C17.684 4.70083 17.9423 4.40079 18.284 4.37579C18.6257 4.35912 18.9257 4.60908 18.9507 4.95075L19.7757 16.3008C19.8257 16.9842 19.584 17.6675 19.1173 18.1675C18.659 18.6758 18.0007 18.9591 17.3173 18.9591Z" fill="#6A7282"/>
<path d="M8.06712 5.94223C8.01712 5.94223 7.96712 5.93388 7.91712 5.92555C7.58379 5.84222 7.37547 5.50886 7.45881 5.16719L8.32545 1.56723C8.40881 1.2339 8.74215 1.02552 9.08381 1.10886C9.41715 1.19219 9.62548 1.52556 9.54215 1.86722L8.67548 5.46727C8.60881 5.75061 8.35048 5.94223 8.06712 5.94223Z" fill="#6A7282"/>
<path d="M13.6501 5.94978C13.6085 5.94978 13.5585 5.94976 13.5168 5.9331C13.1835 5.8581 12.9669 5.52476 13.0335 5.19142L13.8168 1.57478C13.8918 1.23311 14.2251 1.02482 14.5585 1.09149C14.8918 1.15816 15.1085 1.49973 15.0418 1.83306L14.2585 5.44981C14.2001 5.74981 13.9418 5.94978 13.6501 5.94978Z" fill="#6A7282"/>
<path d="M13.0837 10.625H6.41699C6.07533 10.625 5.79199 10.3417 5.79199 10C5.79199 9.65833 6.07533 9.375 6.41699 9.375H13.0837C13.4253 9.375 13.7087 9.65833 13.7087 10C13.7087 10.3417 13.4253 10.625 13.0837 10.625Z" fill="#6A7282"/>
<path d="M12.2507 13.9583H5.58398C5.24232 13.9583 4.95898 13.675 4.95898 13.3333C4.95898 12.9917 5.24232 12.7083 5.58398 12.7083H12.2507C12.5923 12.7083 12.8757 12.9917 12.8757 13.3333C12.8757 13.675 12.5923 13.9583 12.2507 13.9583Z" fill="#6A7282"/>
</g>
</g>
<defs>
<clipPath id="clip0_718_19131">
<rect width="20" height="20" fill="white"/>
</clipPath>
</defs>
</svg>
